# xmcd
#
# Track frame offsets:
#	150
#	16219
#	31786
#	45647
#	63457
#	81372
#	95260
#	110284
#	125907
#	139566
#
# Disc length: 2051 seconds
#
# Revision: 0
# Processed by: cddbd v1.5.2PL0 Copyright (c) Steve Scherf et al.
# Submitted via: audiograbber 1.83.01
#
DISCID=7c08010a
DTITLE=Alkatrazz - Radio 5
DYEAR=1982
DGENRE=Hard Rock
TTITLE0=Blinded
TTITLE1=Blame It On The Night
TTITLE2=Long Way No Love
TTITLE3=Half Way There
TTITLE4=Short Change
TTITLE5=Think It Over
TTITLE6=Communication
TTITLE7=Save My Heart
TTITLE8=So Hard
TTITLE9=Miles Away
EXTD=
EXTT0=
EXTT1=
EXTT2=
EXTT3=
EXTT4=
EXTT5=
EXTT6=
EXTT7=
EXTT8=
EXTT9=
PLAYORDER=
